<mxfile host="app.diagrams.net" modified="2021-08-19T23:35:30.205Z" agent="5.0 (Windows NT 10.0; Win64; x64) AppleWebKit/537.36 (KHTML, like Gecko) Chrome/92.0.4515.107 Safari/537.36" etag="YsIwl3ApWM59UHtbvLUm" version="14.9.7" type="github" pages="2">
  <diagram id="a_hgnYMxLtOfGRJjbgYr" name="Page-1">
    <mxGraphModel dx="2729" dy="2166" grid="1" gridSize="10" guides="1" tooltips="1" connect="1" arrows="1" fold="1" page="1" pageScale="1" pageWidth="827" pageHeight="1169" math="0" shadow="0">
      <root>
        <mxCell id="0" />
        <mxCell id="1" parent="0" />
        <mxCell id="AAs6qN_94XB9XUP0giMY-12" value="" style="rounded=0;whiteSpace=wrap;html=1;dashed=1;strokeWidth=3;fillColor=#dae8fc;strokeColor=#6c8ebf;" vertex="1" parent="1">
          <mxGeometry x="-80" y="270" width="1190" height="570" as="geometry" />
        </mxCell>
        <mxCell id="AAs6qN_94XB9XUP0giMY-38" style="edgeStyle=orthogonalEdgeStyle;rounded=0;orthogonalLoop=1;jettySize=auto;html=1;exitX=0.5;exitY=1;exitDx=0;exitDy=0;" edge="1" parent="1" source="AAs6qN_94XB9XUP0giMY-39" target="AAs6qN_94XB9XUP0giMY-54">
          <mxGeometry relative="1" as="geometry">
            <mxPoint x="650" y="220" as="sourcePoint" />
            <Array as="points">
              <mxPoint x="975" y="249" />
              <mxPoint x="500" y="249" />
              <mxPoint x="500" y="158" />
            </Array>
          </mxGeometry>
        </mxCell>
        <mxCell id="AAs6qN_94XB9XUP0giMY-10" value="&lt;span style=&quot;color: rgba(0 , 0 , 0 , 0) ; font-family: monospace ; font-size: 0px&quot;&gt;%3CmxGraphModel%3E%3Croot%3E%3CmxCell%20id%3D%220%22%2F%3E%3CmxCell%20id%3D%221%22%20parent%3D%220%22%2F%3E%3Cobject%20placeholders%3D%221%22%20c4Name%3D%22name%22%20c4Type%3D%22Software%20System%22%20c4Description%3D%22Description%22%20label%3D%22%26lt%3Bb%26gt%3B%25c4Name%25%26lt%3B%2Fb%26gt%3B%26lt%3Bdiv%26gt%3B%5B%25c4Type%25%5D%26lt%3B%2Fdiv%26gt%3B%26lt%3Bbr%26gt%3B%26lt%3Bdiv%26gt%3B%25c4Description%25%26lt%3B%2Fdiv%26gt%3B%22%20id%3D%222%22%3E%3CmxCell%20style%3D%22rounded%3D1%3BwhiteSpace%3Dwrap%3Bhtml%3D1%3BlabelBackgroundColor%3Dnone%3BfillColor%3D%23999999%3BfontColor%3D%23ffffff%3Balign%3Dcenter%3BarcSize%3D10%3BstrokeColor%3D%238A8A8A%3BmetaEdit%3D1%3BmetaData%3D%7B%26quot%3Bc4Type%26quot%3B%3A%7B%26quot%3Beditable%26quot%3B%3Afalse%7D%7D%3Bpoints%3D%5B%5B0.25%2C0%2C0%5D%2C%5B0.5%2C0%2C0%5D%2C%5B0.75%2C0%2C0%5D%2C%5B1%2C0.25%2C0%5D%2C%5B1%2C0.5%2C0%5D%2C%5B1%2C0.75%2C0%5D%2C%5B0.75%2C1%2C0%5D%2C%5B0.5%2C1%2C0%5D%2C%5B0.25%2C1%2C0%5D%2C%5B0%2C0.75%2C0%5D%2C%5B0%2C0.5%2C0%5D%2C%5B0%2C0.25%2C0%5D%5D%3B%22%20vertex%3D%221%22%20parent%3D%221%22%3E%3CmxGeometry%20x%3D%22180%22%20y%3D%22120%22%20width%3D%22160%22%20height%3D%22110.00000000000001%22%20as%3D%22geometry%22%2F%3E%3C%2FmxCell%3E%3C%2Fobject%3E%3C%2Froot%3E%3C%2FmxGraphModel%3E&lt;/span&gt;" style="text;html=1;strokeColor=none;fillColor=none;align=center;verticalAlign=middle;whiteSpace=wrap;rounded=0;dashed=1;" vertex="1" parent="1">
          <mxGeometry x="-20" y="300" width="410" height="20" as="geometry" />
        </mxCell>
        <mxCell id="AAs6qN_94XB9XUP0giMY-14" value="Definir as funcionalidade dos modulos&amp;nbsp;&lt;br&gt;Definir as integrações de cada modulo&amp;nbsp;&lt;br&gt;Definir os casos de usos a serem abordados&lt;br&gt;Definir os casos que devem ser implementados na POC" style="text;html=1;strokeColor=none;fillColor=none;align=center;verticalAlign=middle;whiteSpace=wrap;rounded=0;dashed=1;" vertex="1" parent="1">
          <mxGeometry x="210" y="-110" width="520" height="150" as="geometry" />
        </mxCell>
        <mxCell id="AAs6qN_94XB9XUP0giMY-17" value="Módulo de Informações Cadastrais" style="swimlane;fontStyle=0;childLayout=stackLayout;horizontal=1;startSize=26;horizontalStack=0;resizeParent=1;resizeParentMax=0;resizeLast=0;collapsible=1;marginBottom=0;dashed=1;strokeWidth=3;strokeColor=#6c8ebf;fillColor=#66B2FF;" vertex="1" parent="1">
          <mxGeometry x="-60" y="300" width="260" height="130" as="geometry" />
        </mxCell>
        <mxCell id="AAs6qN_94XB9XUP0giMY-18" value="Cadastro de Clientes" style="text;strokeColor=none;fillColor=none;align=left;verticalAlign=top;spacingLeft=4;spacingRight=4;overflow=hidden;rotatable=0;points=[[0,0.5],[1,0.5]];portConstraint=eastwest;" vertex="1" parent="AAs6qN_94XB9XUP0giMY-17">
          <mxGeometry y="26" width="260" height="26" as="geometry" />
        </mxCell>
        <mxCell id="AAs6qN_94XB9XUP0giMY-19" value="Cadastro de Fornecedores e Parceiros" style="text;strokeColor=none;fillColor=none;align=left;verticalAlign=top;spacingLeft=4;spacingRight=4;overflow=hidden;rotatable=0;points=[[0,0.5],[1,0.5]];portConstraint=eastwest;" vertex="1" parent="AAs6qN_94XB9XUP0giMY-17">
          <mxGeometry y="52" width="260" height="26" as="geometry" />
        </mxCell>
        <mxCell id="AAs6qN_94XB9XUP0giMY-20" value="Cadastro de Depositos" style="text;strokeColor=none;fillColor=none;align=left;verticalAlign=top;spacingLeft=4;spacingRight=4;overflow=hidden;rotatable=0;points=[[0,0.5],[1,0.5]];portConstraint=eastwest;" vertex="1" parent="AAs6qN_94XB9XUP0giMY-17">
          <mxGeometry y="78" width="260" height="26" as="geometry" />
        </mxCell>
        <mxCell id="AAs6qN_94XB9XUP0giMY-21" value="Cadastro de Mercadorias" style="text;strokeColor=none;fillColor=none;align=left;verticalAlign=top;spacingLeft=4;spacingRight=4;overflow=hidden;rotatable=0;points=[[0,0.5],[1,0.5]];portConstraint=eastwest;" vertex="1" parent="AAs6qN_94XB9XUP0giMY-17">
          <mxGeometry y="104" width="260" height="26" as="geometry" />
        </mxCell>
        <mxCell id="AAs6qN_94XB9XUP0giMY-22" value="CRUD - Cadastro de clientes&lt;br&gt;&lt;br&gt;-&amp;gt; identificação de um cliente&amp;nbsp;&lt;br&gt;-&amp;gt; identificação de localização&lt;br&gt;-&amp;gt; dados complementares inerentes ao negocio" style="text;html=1;fillColor=#dae8fc;align=center;verticalAlign=middle;whiteSpace=wrap;rounded=0;strokeColor=#6c8ebf;" vertex="1" parent="1">
          <mxGeometry x="-413" y="264" width="200" height="150" as="geometry" />
        </mxCell>
        <mxCell id="AAs6qN_94XB9XUP0giMY-23" style="edgeStyle=orthogonalEdgeStyle;rounded=0;orthogonalLoop=1;jettySize=auto;html=1;" edge="1" parent="1" source="AAs6qN_94XB9XUP0giMY-18" target="AAs6qN_94XB9XUP0giMY-22">
          <mxGeometry relative="1" as="geometry" />
        </mxCell>
        <mxCell id="AAs6qN_94XB9XUP0giMY-72" style="edgeStyle=orthogonalEdgeStyle;rounded=0;orthogonalLoop=1;jettySize=auto;html=1;" edge="1" parent="1" source="AAs6qN_94XB9XUP0giMY-24" target="AAs6qN_94XB9XUP0giMY-69">
          <mxGeometry relative="1" as="geometry" />
        </mxCell>
        <mxCell id="AAs6qN_94XB9XUP0giMY-24" value=" Módulo de Serviços ao Cliente" style="swimlane;fontStyle=0;childLayout=stackLayout;horizontal=1;startSize=26;horizontalStack=0;resizeParent=1;resizeParentMax=0;resizeLast=0;collapsible=1;marginBottom=0;strokeColor=#000000;strokeWidth=3;fillColor=#66B2FF;" vertex="1" parent="1">
          <mxGeometry x="-10.5" y="540" width="480" height="122" as="geometry" />
        </mxCell>
        <mxCell id="AAs6qN_94XB9XUP0giMY-25" value="Processos de atendimento ao cliente, cadastro entregas, planos descontos" style="text;strokeColor=none;fillColor=none;align=left;verticalAlign=top;spacingLeft=4;spacingRight=4;overflow=hidden;rotatable=0;points=[[0,0.5],[1,0.5]];portConstraint=eastwest;" vertex="1" parent="AAs6qN_94XB9XUP0giMY-24">
          <mxGeometry y="26" width="480" height="22" as="geometry" />
        </mxCell>
        <mxCell id="AAs6qN_94XB9XUP0giMY-68" value="Fluxo de cadastro de cliente" style="text;strokeColor=none;fillColor=none;align=left;verticalAlign=top;spacingLeft=4;spacingRight=4;overflow=hidden;rotatable=0;points=[[0,0.5],[1,0.5]];portConstraint=eastwest;" vertex="1" parent="AAs6qN_94XB9XUP0giMY-24">
          <mxGeometry y="48" width="480" height="22" as="geometry" />
        </mxCell>
        <mxCell id="AAs6qN_94XB9XUP0giMY-27" value="Fluxo operacional para imputar as entregas  a serem realizadas no dia&#xa;" style="text;strokeColor=none;fillColor=none;align=left;verticalAlign=top;spacingLeft=4;spacingRight=4;overflow=hidden;rotatable=0;points=[[0,0.5],[1,0.5]];portConstraint=eastwest;" vertex="1" parent="AAs6qN_94XB9XUP0giMY-24">
          <mxGeometry y="70" width="480" height="26" as="geometry" />
        </mxCell>
        <mxCell id="AAs6qN_94XB9XUP0giMY-67" value="Fluxo operacional para cadastrar os produtos e estoques" style="text;strokeColor=none;fillColor=none;align=left;verticalAlign=top;spacingLeft=4;spacingRight=4;overflow=hidden;rotatable=0;points=[[0,0.5],[1,0.5]];portConstraint=eastwest;" vertex="1" parent="AAs6qN_94XB9XUP0giMY-24">
          <mxGeometry y="96" width="480" height="26" as="geometry" />
        </mxCell>
        <mxCell id="AAs6qN_94XB9XUP0giMY-28" value=" Módulo de Gestão e Estratégia" style="swimlane;fontStyle=0;childLayout=stackLayout;horizontal=1;startSize=26;horizontalStack=0;resizeParent=1;resizeParentMax=0;resizeLast=0;collapsible=1;marginBottom=0;strokeColor=#000000;strokeWidth=3;fillColor=#66B2FF;" vertex="1" parent="1">
          <mxGeometry x="645" y="300" width="340" height="100" as="geometry" />
        </mxCell>
        <mxCell id="AAs6qN_94XB9XUP0giMY-29" value="Mecanismo para identificar online uma entrega realizada" style="text;strokeColor=none;fillColor=none;align=left;verticalAlign=top;spacingLeft=4;spacingRight=4;overflow=hidden;rotatable=0;points=[[0,0.5],[1,0.5]];portConstraint=eastwest;" vertex="1" parent="AAs6qN_94XB9XUP0giMY-28">
          <mxGeometry y="26" width="340" height="22" as="geometry" />
        </mxCell>
        <mxCell id="AAs6qN_94XB9XUP0giMY-30" value="mecanismo de identificar entrega a serem realizadas" style="text;strokeColor=none;fillColor=none;align=left;verticalAlign=top;spacingLeft=4;spacingRight=4;overflow=hidden;rotatable=0;points=[[0,0.5],[1,0.5]];portConstraint=eastwest;" vertex="1" parent="AAs6qN_94XB9XUP0giMY-28">
          <mxGeometry y="48" width="340" height="26" as="geometry" />
        </mxCell>
        <mxCell id="AAs6qN_94XB9XUP0giMY-31" value="https://www.siteware.com.br/blog/gestao-estrategica/principais-ferramentas-gestao-empresarial/" style="text;strokeColor=none;fillColor=none;align=left;verticalAlign=top;spacingLeft=4;spacingRight=4;overflow=hidden;rotatable=0;points=[[0,0.5],[1,0.5]];portConstraint=eastwest;" vertex="1" parent="AAs6qN_94XB9XUP0giMY-28">
          <mxGeometry y="74" width="340" height="26" as="geometry" />
        </mxCell>
        <mxCell id="AAs6qN_94XB9XUP0giMY-32" value="Módulo de Ciência de Dados Data Warehouse (DW) e Business Intelligence (BI)" style="swimlane;fontStyle=0;childLayout=stackLayout;horizontal=1;startSize=26;horizontalStack=0;resizeParent=1;resizeParentMax=0;resizeLast=0;collapsible=1;marginBottom=0;strokeColor=#000000;strokeWidth=3;fillColor=#66B2FF;" vertex="1" parent="1">
          <mxGeometry x="570" y="630" width="550" height="100" as="geometry" />
        </mxCell>
        <mxCell id="AAs6qN_94XB9XUP0giMY-33" value="Toda transação pertinente ao negocio deve gerar um evento para ser consumido pelo DW e BI" style="text;strokeColor=none;fillColor=none;align=left;verticalAlign=top;spacingLeft=4;spacingRight=4;overflow=hidden;rotatable=0;points=[[0,0.5],[1,0.5]];portConstraint=eastwest;" vertex="1" parent="AAs6qN_94XB9XUP0giMY-32">
          <mxGeometry y="26" width="550" height="22" as="geometry" />
        </mxCell>
        <mxCell id="AAs6qN_94XB9XUP0giMY-34" value="Item 2" style="text;strokeColor=none;fillColor=none;align=left;verticalAlign=top;spacingLeft=4;spacingRight=4;overflow=hidden;rotatable=0;points=[[0,0.5],[1,0.5]];portConstraint=eastwest;" vertex="1" parent="AAs6qN_94XB9XUP0giMY-32">
          <mxGeometry y="48" width="550" height="26" as="geometry" />
        </mxCell>
        <mxCell id="AAs6qN_94XB9XUP0giMY-35" value="Item 3" style="text;strokeColor=none;fillColor=none;align=left;verticalAlign=top;spacingLeft=4;spacingRight=4;overflow=hidden;rotatable=0;points=[[0,0.5],[1,0.5]];portConstraint=eastwest;" vertex="1" parent="AAs6qN_94XB9XUP0giMY-32">
          <mxGeometry y="74" width="550" height="26" as="geometry" />
        </mxCell>
        <mxCell id="AAs6qN_94XB9XUP0giMY-36" style="edgeStyle=orthogonalEdgeStyle;rounded=0;orthogonalLoop=1;jettySize=auto;html=1;entryX=0.464;entryY=0.962;entryDx=0;entryDy=0;entryPerimeter=0;" edge="1" parent="1" source="AAs6qN_94XB9XUP0giMY-20" target="AAs6qN_94XB9XUP0giMY-57">
          <mxGeometry relative="1" as="geometry" />
        </mxCell>
        <mxCell id="AAs6qN_94XB9XUP0giMY-37" style="edgeStyle=orthogonalEdgeStyle;rounded=0;orthogonalLoop=1;jettySize=auto;html=1;entryX=0.45;entryY=0.962;entryDx=0;entryDy=0;entryPerimeter=0;" edge="1" parent="1" source="AAs6qN_94XB9XUP0giMY-21" target="AAs6qN_94XB9XUP0giMY-57">
          <mxGeometry relative="1" as="geometry" />
        </mxCell>
        <mxCell id="AAs6qN_94XB9XUP0giMY-39" value="Portal Corporativo" style="swimlane;fontStyle=0;childLayout=stackLayout;horizontal=1;startSize=26;horizontalStack=0;resizeParent=1;resizeParentMax=0;resizeLast=0;collapsible=1;marginBottom=0;strokeColor=#000000;strokeWidth=3;fillColor=#CCCCCC;" vertex="1" parent="1">
          <mxGeometry x="860" y="21" width="450" height="208" as="geometry" />
        </mxCell>
        <mxCell id="AAs6qN_94XB9XUP0giMY-40" value="conhecer as rotas pré-existentes" style="text;strokeColor=none;fillColor=none;align=left;verticalAlign=top;spacingLeft=4;spacingRight=4;overflow=hidden;rotatable=0;points=[[0,0.5],[1,0.5]];portConstraint=eastwest;" vertex="1" parent="AAs6qN_94XB9XUP0giMY-39">
          <mxGeometry y="26" width="450" height="26" as="geometry" />
        </mxCell>
        <mxCell id="AAs6qN_94XB9XUP0giMY-41" value=" escolher rotas" style="text;strokeColor=none;fillColor=none;align=left;verticalAlign=top;spacingLeft=4;spacingRight=4;overflow=hidden;rotatable=0;points=[[0,0.5],[1,0.5]];portConstraint=eastwest;" vertex="1" parent="AAs6qN_94XB9XUP0giMY-39">
          <mxGeometry y="52" width="450" height="26" as="geometry" />
        </mxCell>
        <mxCell id="AAs6qN_94XB9XUP0giMY-43" value="alterar rotas" style="text;strokeColor=none;fillColor=none;align=left;verticalAlign=top;spacingLeft=4;spacingRight=4;overflow=hidden;rotatable=0;points=[[0,0.5],[1,0.5]];portConstraint=eastwest;" vertex="1" parent="AAs6qN_94XB9XUP0giMY-39">
          <mxGeometry y="78" width="450" height="26" as="geometry" />
        </mxCell>
        <mxCell id="AAs6qN_94XB9XUP0giMY-44" value="planejar entregas" style="text;strokeColor=none;fillColor=none;align=left;verticalAlign=top;spacingLeft=4;spacingRight=4;overflow=hidden;rotatable=0;points=[[0,0.5],[1,0.5]];portConstraint=eastwest;" vertex="1" parent="AAs6qN_94XB9XUP0giMY-39">
          <mxGeometry y="104" width="450" height="26" as="geometry" />
        </mxCell>
        <mxCell id="AAs6qN_94XB9XUP0giMY-45" value="acompanhar entregas em andamento" style="text;strokeColor=none;fillColor=none;align=left;verticalAlign=top;spacingLeft=4;spacingRight=4;overflow=hidden;rotatable=0;points=[[0,0.5],[1,0.5]];portConstraint=eastwest;" vertex="1" parent="AAs6qN_94XB9XUP0giMY-39">
          <mxGeometry y="130" width="450" height="26" as="geometry" />
        </mxCell>
        <mxCell id="AAs6qN_94XB9XUP0giMY-46" value="verificar dinamicamente problemas com veículos em rota de entrega" style="text;strokeColor=none;fillColor=none;align=left;verticalAlign=top;spacingLeft=4;spacingRight=4;overflow=hidden;rotatable=0;points=[[0,0.5],[1,0.5]];portConstraint=eastwest;" vertex="1" parent="AAs6qN_94XB9XUP0giMY-39">
          <mxGeometry y="156" width="450" height="26" as="geometry" />
        </mxCell>
        <mxCell id="AAs6qN_94XB9XUP0giMY-42" value="etc" style="text;strokeColor=none;fillColor=none;align=left;verticalAlign=top;spacingLeft=4;spacingRight=4;overflow=hidden;rotatable=0;points=[[0,0.5],[1,0.5]];portConstraint=eastwest;" vertex="1" parent="AAs6qN_94XB9XUP0giMY-39">
          <mxGeometry y="182" width="450" height="26" as="geometry" />
        </mxCell>
        <mxCell id="AAs6qN_94XB9XUP0giMY-47" value="" style="shape=image;html=1;verticalAlign=top;verticalLabelPosition=bottom;labelBackgroundColor=#ffffff;imageAspect=0;aspect=fixed;image=https://cdn4.iconfinder.com/data/icons/scripting-and-programming-languages/512/js-128.png;strokeColor=#000000;strokeWidth=3;fillColor=#CCCCCC;" vertex="1" parent="1">
          <mxGeometry x="970" y="-60" width="68" height="68" as="geometry" />
        </mxCell>
        <mxCell id="AAs6qN_94XB9XUP0giMY-48" value="" style="dashed=0;outlineConnect=0;html=1;align=center;labelPosition=center;verticalLabelPosition=bottom;verticalAlign=top;shape=mxgraph.weblogos.html5;strokeColor=#000000;strokeWidth=3;fillColor=#CCCCCC;" vertex="1" parent="1">
          <mxGeometry x="910" y="-66" width="52.400000000000006" height="74" as="geometry" />
        </mxCell>
        <mxCell id="AAs6qN_94XB9XUP0giMY-49" value="" style="shape=image;html=1;verticalAlign=top;verticalLabelPosition=bottom;labelBackgroundColor=#ffffff;imageAspect=0;aspect=fixed;image=https://cdn3.iconfinder.com/data/icons/fatcow/32/css.png;strokeColor=#000000;strokeWidth=3;fillColor=#CCCCCC;" vertex="1" parent="1">
          <mxGeometry x="1040" y="-45" width="32" height="32" as="geometry" />
        </mxCell>
        <mxCell id="AAs6qN_94XB9XUP0giMY-50" value="" style="shape=image;html=1;verticalAlign=top;verticalLabelPosition=bottom;labelBackgroundColor=#ffffff;imageAspect=0;aspect=fixed;image=https://cdn4.iconfinder.com/data/icons/logos-brands-5/24/flutter-128.png;strokeColor=#000000;strokeWidth=3;fillColor=#CCCCCC;" vertex="1" parent="1">
          <mxGeometry x="200" y="42" width="59" height="59" as="geometry" />
        </mxCell>
        <mxCell id="AAs6qN_94XB9XUP0giMY-51" value="" style="shape=image;html=1;verticalAlign=top;verticalLabelPosition=bottom;labelBackgroundColor=#ffffff;imageAspect=0;aspect=fixed;image=https://cdn4.iconfinder.com/data/icons/scripting-and-programming-languages/512/js-128.png;strokeColor=#000000;strokeWidth=3;fillColor=#CCCCCC;" vertex="1" parent="1">
          <mxGeometry x="322" y="32" width="68" height="68" as="geometry" />
        </mxCell>
        <mxCell id="AAs6qN_94XB9XUP0giMY-52" value="" style="dashed=0;outlineConnect=0;html=1;align=center;labelPosition=center;verticalLabelPosition=bottom;verticalAlign=top;shape=mxgraph.weblogos.html5;strokeColor=#000000;strokeWidth=3;fillColor=#CCCCCC;" vertex="1" parent="1">
          <mxGeometry x="259" y="29" width="52.400000000000006" height="74" as="geometry" />
        </mxCell>
        <mxCell id="AAs6qN_94XB9XUP0giMY-53" value="" style="shape=image;html=1;verticalAlign=top;verticalLabelPosition=bottom;labelBackgroundColor=#ffffff;imageAspect=0;aspect=fixed;image=https://cdn4.iconfinder.com/data/icons/logos-and-brands/512/256_Php_logo-128.png;strokeColor=#000000;strokeWidth=3;fillColor=#CCCCCC;" vertex="1" parent="1">
          <mxGeometry x="132" y="33" width="68" height="68" as="geometry" />
        </mxCell>
        <mxCell id="AAs6qN_94XB9XUP0giMY-54" value="SGE" style="swimlane;fontStyle=0;childLayout=stackLayout;horizontal=1;startSize=26;horizontalStack=0;resizeParent=1;resizeParentMax=0;resizeLast=0;collapsible=1;marginBottom=0;strokeColor=#000000;strokeWidth=3;fillColor=#CCCCCC;" vertex="1" parent="1">
          <mxGeometry x="80" y="106" width="400" height="104" as="geometry" />
        </mxCell>
        <mxCell id="AAs6qN_94XB9XUP0giMY-55" value="Gestão completa das entregas permitindo" style="text;strokeColor=none;fillColor=none;align=left;verticalAlign=top;spacingLeft=4;spacingRight=4;overflow=hidden;rotatable=0;points=[[0,0.5],[1,0.5]];portConstraint=eastwest;" vertex="1" parent="AAs6qN_94XB9XUP0giMY-54">
          <mxGeometry y="26" width="400" height="26" as="geometry" />
        </mxCell>
        <mxCell id="AAs6qN_94XB9XUP0giMY-56" value="Gestão da programação e roteamento das entregas" style="text;strokeColor=none;fillColor=none;align=left;verticalAlign=top;spacingLeft=4;spacingRight=4;overflow=hidden;rotatable=0;points=[[0,0.5],[1,0.5]];portConstraint=eastwest;" vertex="1" parent="AAs6qN_94XB9XUP0giMY-54">
          <mxGeometry y="52" width="400" height="26" as="geometry" />
        </mxCell>
        <mxCell id="AAs6qN_94XB9XUP0giMY-57" value="Função de gestão de estoques;" style="text;strokeColor=none;fillColor=none;align=left;verticalAlign=top;spacingLeft=4;spacingRight=4;overflow=hidden;rotatable=0;points=[[0,0.5],[1,0.5]];portConstraint=eastwest;" vertex="1" parent="AAs6qN_94XB9XUP0giMY-54">
          <mxGeometry y="78" width="400" height="26" as="geometry" />
        </mxCell>
        <mxCell id="AAs6qN_94XB9XUP0giMY-58" style="edgeStyle=orthogonalEdgeStyle;rounded=0;orthogonalLoop=1;jettySize=auto;html=1;entryX=1;entryY=0.5;entryDx=0;entryDy=0;" edge="1" parent="1" source="AAs6qN_94XB9XUP0giMY-55" target="AAs6qN_94XB9XUP0giMY-62">
          <mxGeometry relative="1" as="geometry">
            <mxPoint x="-53" y="133.5" as="targetPoint" />
          </mxGeometry>
        </mxCell>
        <mxCell id="AAs6qN_94XB9XUP0giMY-59" value="" style="outlineConnect=0;dashed=0;verticalLabelPosition=bottom;verticalAlign=top;align=center;html=1;shape=mxgraph.aws3.android;fillColor=#115193;gradientColor=none;strokeColor=#000000;strokeWidth=3;" vertex="1" parent="1">
          <mxGeometry x="-133" y="11" width="73.5" height="84" as="geometry" />
        </mxCell>
        <mxCell id="AAs6qN_94XB9XUP0giMY-60" value="" style="aspect=fixed;html=1;points=[];align=center;image;fontSize=12;image=img/lib/mscae/dep/SQL_Server_Stretch_DB.svg;strokeColor=#000000;strokeWidth=3;fillColor=#CCCCCC;" vertex="1" parent="1">
          <mxGeometry x="-190" y="33" width="50" height="50" as="geometry" />
        </mxCell>
        <mxCell id="AAs6qN_94XB9XUP0giMY-61" value="SAF" style="swimlane;fontStyle=0;childLayout=stackLayout;horizontal=1;startSize=26;horizontalStack=0;resizeParent=1;resizeParentMax=0;resizeLast=0;collapsible=1;marginBottom=0;strokeColor=#000000;strokeWidth=3;fillColor=#CCCCCC;" vertex="1" parent="1">
          <mxGeometry x="-220" y="106" width="190" height="78" as="geometry" />
        </mxCell>
        <mxCell id="AAs6qN_94XB9XUP0giMY-62" value=" Gestão Administrativa" style="text;strokeColor=none;fillColor=none;align=left;verticalAlign=top;spacingLeft=4;spacingRight=4;overflow=hidden;rotatable=0;points=[[0,0.5],[1,0.5]];portConstraint=eastwest;" vertex="1" parent="AAs6qN_94XB9XUP0giMY-61">
          <mxGeometry y="26" width="190" height="26" as="geometry" />
        </mxCell>
        <mxCell id="AAs6qN_94XB9XUP0giMY-63" value="Gestão Financeira" style="text;strokeColor=none;fillColor=none;align=left;verticalAlign=top;spacingLeft=4;spacingRight=4;overflow=hidden;rotatable=0;points=[[0,0.5],[1,0.5]];portConstraint=eastwest;" vertex="1" parent="AAs6qN_94XB9XUP0giMY-61">
          <mxGeometry y="52" width="190" height="26" as="geometry" />
        </mxCell>
        <mxCell id="AAs6qN_94XB9XUP0giMY-65" value="CRUD - Cadastro de fornecedores&lt;br&gt;" style="text;html=1;fillColor=#dae8fc;align=center;verticalAlign=middle;whiteSpace=wrap;rounded=0;strokeColor=#6c8ebf;" vertex="1" parent="1">
          <mxGeometry x="-420" y="435" width="200" height="150" as="geometry" />
        </mxCell>
        <mxCell id="AAs6qN_94XB9XUP0giMY-66" style="edgeStyle=orthogonalEdgeStyle;rounded=0;orthogonalLoop=1;jettySize=auto;html=1;entryX=1;entryY=0.5;entryDx=0;entryDy=0;" edge="1" parent="1" source="AAs6qN_94XB9XUP0giMY-19" target="AAs6qN_94XB9XUP0giMY-65">
          <mxGeometry relative="1" as="geometry" />
        </mxCell>
        <mxCell id="AAs6qN_94XB9XUP0giMY-69" value="SFC" style="swimlane;fontStyle=0;childLayout=stackLayout;horizontal=1;startSize=26;horizontalStack=0;resizeParent=1;resizeParentMax=0;resizeLast=0;collapsible=1;marginBottom=0;strokeColor=#000000;strokeWidth=3;fillColor=#CCCCCC;" vertex="1" parent="1">
          <mxGeometry x="510" y="103" width="330" height="104" as="geometry" />
        </mxCell>
        <mxCell id="AAs6qN_94XB9XUP0giMY-70" value=" Faturamento / Nota Fiscal" style="text;strokeColor=none;fillColor=none;align=left;verticalAlign=top;spacingLeft=4;spacingRight=4;overflow=hidden;rotatable=0;points=[[0,0.5],[1,0.5]];portConstraint=eastwest;" vertex="1" parent="AAs6qN_94XB9XUP0giMY-69">
          <mxGeometry y="26" width="330" height="26" as="geometry" />
        </mxCell>
        <mxCell id="lj4E7qH24ZWg2qWQdujM-1" value="Cobrança de valores" style="text;strokeColor=none;fillColor=none;align=left;verticalAlign=top;spacingLeft=4;spacingRight=4;overflow=hidden;rotatable=0;points=[[0,0.5],[1,0.5]];portConstraint=eastwest;" vertex="1" parent="AAs6qN_94XB9XUP0giMY-69">
          <mxGeometry y="52" width="330" height="26" as="geometry" />
        </mxCell>
        <mxCell id="AAs6qN_94XB9XUP0giMY-71" value="Melhoria Emissão do CTe + DACTE ao invés do CTRC" style="text;strokeColor=#6c8ebf;fillColor=#dae8fc;align=left;verticalAlign=top;spacingLeft=4;spacingRight=4;overflow=hidden;rotatable=0;points=[[0,0.5],[1,0.5]];portConstraint=eastwest;" vertex="1" parent="AAs6qN_94XB9XUP0giMY-69">
          <mxGeometry y="78" width="330" height="26" as="geometry" />
        </mxCell>
        <mxCell id="lj4E7qH24ZWg2qWQdujM-2" value="Dados para Emissão do CTe&lt;br&gt;&lt;br&gt;&lt;br&gt;&lt;ul style=&quot;margin: 1.65em 0px 1.65em 35px ; padding: 0px ; border: 0px ; vertical-align: baseline ; font-size: 19px ; font-family: &amp;#34;source sans pro&amp;#34; , &amp;#34;arial&amp;#34; , sans-serif ; list-style: none ; color: rgb(30 , 37 , 53) ; text-align: left ; background-color: rgb(255 , 255 , 255)&quot;&gt;&lt;li style=&quot;margin: 0px 0px 0.8em ; padding: 0px 0px 0px 5px ; border: 0px ; vertical-align: baseline ; font-family: inherit&quot;&gt;Informação da empresa que realizará o transporte transporte;&lt;/li&gt;&lt;li style=&quot;margin: 0px 0px 0.8em ; padding: 0px 0px 0px 5px ; border: 0px ; vertical-align: baseline ; font-family: inherit&quot;&gt;Dados do fornecedor dos produtos transportados;&lt;/li&gt;&lt;li style=&quot;margin: 0px 0px 0.8em ; padding: 0px 0px 0px 5px ; border: 0px ; vertical-align: baseline ; font-family: inherit&quot;&gt;Informações do tomador responsável pelo pagamento do frete;&lt;/li&gt;&lt;li style=&quot;margin: 0px 0px 0.8em ; padding: 0px 0px 0px 5px ; border: 0px ; vertical-align: baseline ; font-family: inherit&quot;&gt;Dados do destinatário da carga;&lt;/li&gt;&lt;li style=&quot;margin: 0px 0px 0.8em ; padding: 0px 0px 0px 5px ; border: 0px ; vertical-align: baseline ; font-family: inherit&quot;&gt;Informações da mercadoria transportada (natureza da carga, quantidade, espécie, peso, valor e número da nota fiscal);&amp;nbsp;&lt;/li&gt;&lt;li style=&quot;margin: 0px 0px 0.8em ; padding: 0px 0px 0px 5px ; border: 0px ; vertical-align: baseline ; font-family: inherit&quot;&gt;Dados de composição do frete;&lt;/li&gt;&lt;li style=&quot;margin: 0px 0px 0.8em ; padding: 0px 0px 0px 5px ; border: 0px ; vertical-align: baseline ; font-family: inherit&quot;&gt;Dados do veículo.&lt;/li&gt;&lt;/ul&gt;&lt;div style=&quot;text-align: left&quot;&gt;&lt;span style=&quot;color: rgb(30 , 37 , 53) ; font-family: &amp;#34;source sans pro&amp;#34; , &amp;#34;arial&amp;#34; , sans-serif ; font-size: 19px ; background-color: rgb(255 , 255 , 255)&quot;&gt;O CTRC foi descontinuado em 2007 e substituído pela versão eletrônica, o CT-e (&lt;/span&gt;&lt;strong style=&quot;margin: 0px ; padding: 0px ; border: 0px ; vertical-align: baseline ; font-size: 19px ; font-family: &amp;#34;source sans pro&amp;#34; , &amp;#34;arial&amp;#34; , sans-serif ; color: rgb(30 , 37 , 53) ; background-color: rgb(255 , 255 , 255)&quot;&gt;Conhecimento de Transporte Eletrônico&lt;/strong&gt;&lt;span style=&quot;color: rgb(30 , 37 , 53) ; font-family: &amp;#34;source sans pro&amp;#34; , &amp;#34;arial&amp;#34; , sans-serif ; font-size: 19px ; background-color: rgb(255 , 255 , 255)&quot;&gt;), conforme indicado no&amp;nbsp;&lt;/span&gt;&lt;a target=&quot;_blank&quot; href=&quot;https://www.confaz.fazenda.gov.br/legislacao/ajustes/2007/AJ_009_07&quot; style=&quot;margin: 0px ; padding: 0px ; border: 0px ; vertical-align: baseline ; font-size: 19px ; font-family: &amp;#34;source sans pro&amp;#34; , &amp;#34;arial&amp;#34; , sans-serif ; color: rgb(0 , 27 , 184) ; transition: 0.2s ease 0s ; font-weight: 600 ; background-color: rgb(255 , 255 , 255)&quot;&gt;Ajuste SINIEF 09&lt;/a&gt;&lt;span style=&quot;color: rgb(30 , 37 , 53) ; font-family: &amp;#34;source sans pro&amp;#34; , &amp;#34;arial&amp;#34; , sans-serif ; font-size: 19px ; background-color: rgb(255 , 255 , 255)&quot;&gt;&amp;nbsp;realizado no Código Tributário Nacional.&lt;/span&gt;&lt;font color=&quot;#1e2535&quot; face=&quot;source sans pro, arial, sans-serif&quot;&gt;&lt;span style=&quot;font-size: 19px&quot;&gt;&lt;br&gt;&lt;/span&gt;&lt;/font&gt;&lt;/div&gt;&lt;div style=&quot;text-align: left&quot;&gt;&lt;span style=&quot;color: rgb(30 , 37 , 53) ; font-family: &amp;#34;source sans pro&amp;#34; , &amp;#34;arial&amp;#34; , sans-serif ; font-size: 19px ; background-color: rgb(255 , 255 , 255)&quot;&gt;&lt;br&gt;&lt;/span&gt;&lt;/div&gt;&lt;div style=&quot;text-align: left&quot;&gt;&lt;h2 style=&quot;margin: 0px ; padding: 0px ; border: 0px ; vertical-align: baseline ; font-size: 1.6315em ; font-family: &amp;#34;source sans pro&amp;#34; , &amp;#34;arial&amp;#34; , sans-serif ; color: rgb(17 , 17 , 17) ; line-height: 1.5 ; background-color: rgb(255 , 255 , 255)&quot;&gt;&amp;nbsp;DACTE?&lt;/h2&gt;&lt;p style=&quot;margin: 0px 0px 1.65em ; padding: 0px ; border: 0px ; vertical-align: baseline ; font-size: 19px ; font-family: &amp;#34;source sans pro&amp;#34; , &amp;#34;arial&amp;#34; , sans-serif ; color: rgb(30 , 37 , 53) ; background-color: rgb(255 , 255 , 255)&quot;&gt;O DACTE é o documento físico que acompanha as mercadorias em uma operação de transporte.&lt;/p&gt;&lt;p style=&quot;margin: 0px 0px 1.65em ; padding: 0px ; border: 0px ; vertical-align: baseline ; font-size: 19px ; font-family: &amp;#34;source sans pro&amp;#34; , &amp;#34;arial&amp;#34; , sans-serif ; color: rgb(30 , 37 , 53) ; background-color: rgb(255 , 255 , 255)&quot;&gt;Serve para facilitar a fiscalização nas rodovias, rios, aeroportos e cursos d’água por onde as cargas transportadas no Brasil são escoadas.&lt;/p&gt;&lt;/div&gt;" style="text;html=1;strokeColor=none;fillColor=none;align=center;verticalAlign=middle;whiteSpace=wrap;rounded=0;" vertex="1" parent="1">
          <mxGeometry x="-20" y="890" width="1061" height="580" as="geometry" />
        </mxCell>
      </root>
    </mxGraphModel>
  </diagram>
  <diagram id="apwxJD9_GtJoLJPw4rT3" name="Page-2">
    <mxGraphModel dx="2729" dy="997" grid="1" gridSize="10" guides="1" tooltips="1" connect="1" arrows="1" fold="1" page="1" pageScale="1" pageWidth="827" pageHeight="1169" math="0" shadow="0">
      <root>
        <mxCell id="s9pFLaEDyxPaD2Wh4Ioi-0" />
        <mxCell id="s9pFLaEDyxPaD2Wh4Ioi-1" parent="s9pFLaEDyxPaD2Wh4Ioi-0" />
        <mxCell id="n42NI68vKftOxxPm6-xj-0" style="edgeStyle=orthogonalEdgeStyle;rounded=0;orthogonalLoop=1;jettySize=auto;html=1;" edge="1" parent="s9pFLaEDyxPaD2Wh4Ioi-1" source="s9pFLaEDyxPaD2Wh4Ioi-7" target="s9pFLaEDyxPaD2Wh4Ioi-13">
          <mxGeometry relative="1" as="geometry" />
        </mxCell>
        <mxCell id="n42NI68vKftOxxPm6-xj-1" style="edgeStyle=orthogonalEdgeStyle;rounded=0;orthogonalLoop=1;jettySize=auto;html=1;" edge="1" parent="s9pFLaEDyxPaD2Wh4Ioi-1" source="s9pFLaEDyxPaD2Wh4Ioi-7" target="s9pFLaEDyxPaD2Wh4Ioi-8">
          <mxGeometry relative="1" as="geometry">
            <Array as="points">
              <mxPoint x="360" y="314" />
              <mxPoint x="360" y="163" />
            </Array>
          </mxGeometry>
        </mxCell>
        <mxCell id="s9pFLaEDyxPaD2Wh4Ioi-7" value="Centro de Distribuição e armazem" style="shape=image;html=1;verticalAlign=top;verticalLabelPosition=bottom;labelBackgroundColor=#ffffff;imageAspect=0;aspect=fixed;image=https://cdn0.iconfinder.com/data/icons/isometric-city-basic-buildings/128/factory-garage-128.png;strokeColor=#000000;strokeWidth=3;fillColor=#CCCCCC;" vertex="1" parent="s9pFLaEDyxPaD2Wh4Ioi-1">
          <mxGeometry x="530" y="226.75" width="128" height="128" as="geometry" />
        </mxCell>
        <mxCell id="n42NI68vKftOxxPm6-xj-2" style="edgeStyle=orthogonalEdgeStyle;rounded=0;orthogonalLoop=1;jettySize=auto;html=1;" edge="1" parent="s9pFLaEDyxPaD2Wh4Ioi-1" source="s9pFLaEDyxPaD2Wh4Ioi-8" target="s9pFLaEDyxPaD2Wh4Ioi-11">
          <mxGeometry relative="1" as="geometry" />
        </mxCell>
        <mxCell id="n42NI68vKftOxxPm6-xj-5" style="edgeStyle=orthogonalEdgeStyle;rounded=0;orthogonalLoop=1;jettySize=auto;html=1;entryX=0.417;entryY=0.392;entryDx=0;entryDy=0;entryPerimeter=0;" edge="1" parent="s9pFLaEDyxPaD2Wh4Ioi-1" source="s9pFLaEDyxPaD2Wh4Ioi-8" target="s9pFLaEDyxPaD2Wh4Ioi-9">
          <mxGeometry relative="1" as="geometry" />
        </mxCell>
        <mxCell id="s9pFLaEDyxPaD2Wh4Ioi-8" value="Centro logistico 1" style="html=1;verticalLabelPosition=bottom;align=center;labelBackgroundColor=#ffffff;verticalAlign=top;strokeWidth=2;strokeColor=#0080F0;shadow=0;dashed=0;shape=mxgraph.ios7.icons.home;fillColor=#CCCCCC;" vertex="1" parent="s9pFLaEDyxPaD2Wh4Ioi-1">
          <mxGeometry x="270" y="150" width="24" height="25.5" as="geometry" />
        </mxCell>
        <mxCell id="n42NI68vKftOxxPm6-xj-4" style="edgeStyle=orthogonalEdgeStyle;rounded=0;orthogonalLoop=1;jettySize=auto;html=1;" edge="1" parent="s9pFLaEDyxPaD2Wh4Ioi-1" source="s9pFLaEDyxPaD2Wh4Ioi-9" target="s9pFLaEDyxPaD2Wh4Ioi-12">
          <mxGeometry relative="1" as="geometry" />
        </mxCell>
        <mxCell id="s9pFLaEDyxPaD2Wh4Ioi-9" value="Centro logistico 2" style="html=1;verticalLabelPosition=bottom;align=center;labelBackgroundColor=#ffffff;verticalAlign=top;strokeWidth=2;strokeColor=#0080F0;shadow=0;dashed=0;shape=mxgraph.ios7.icons.home;fillColor=#CCCCCC;" vertex="1" parent="s9pFLaEDyxPaD2Wh4Ioi-1">
          <mxGeometry x="260" y="630" width="24" height="25.5" as="geometry" />
        </mxCell>
        <mxCell id="s9pFLaEDyxPaD2Wh4Ioi-11" value="consumidor 1" style="shape=image;html=1;verticalAlign=top;verticalLabelPosition=bottom;labelBackgroundColor=#ffffff;imageAspect=0;aspect=fixed;image=https://cdn1.iconfinder.com/data/icons/user-avatar-20/64/59-woman-128.png;strokeColor=#000000;strokeWidth=3;fillColor=#CCCCCC;" vertex="1" parent="s9pFLaEDyxPaD2Wh4Ioi-1">
          <mxGeometry x="38" y="40" width="128" height="128" as="geometry" />
        </mxCell>
        <mxCell id="s9pFLaEDyxPaD2Wh4Ioi-12" value="Consumidor 4" style="shape=image;html=1;verticalAlign=top;verticalLabelPosition=bottom;labelBackgroundColor=#ffffff;imageAspect=0;aspect=fixed;image=https://cdn1.iconfinder.com/data/icons/user-avatar-20/64/36-Surgeon-128.png;strokeColor=#000000;strokeWidth=3;fillColor=#CCCCCC;" vertex="1" parent="s9pFLaEDyxPaD2Wh4Ioi-1">
          <mxGeometry x="-40" y="578.75" width="128" height="128" as="geometry" />
        </mxCell>
        <mxCell id="s9pFLaEDyxPaD2Wh4Ioi-13" value="Consumidor 2" style="shape=image;html=1;verticalAlign=top;verticalLabelPosition=bottom;labelBackgroundColor=#ffffff;imageAspect=0;aspect=fixed;image=https://cdn4.iconfinder.com/data/icons/music-ui-solid-24px/24/user_account_profile-2-128.png;strokeColor=#000000;strokeWidth=3;fillColor=#CCCCCC;" vertex="1" parent="s9pFLaEDyxPaD2Wh4Ioi-1">
          <mxGeometry x="850" y="98.75" width="128" height="128" as="geometry" />
        </mxCell>
      </root>
    </mxGraphModel>
  </diagram>
</mxfile>
